<svg xmlns="http://www.w3.org/2000/svg" viewBox="0 0 64 64" fill="none"><defs><linearGradient id="a" x1="8" y1="4" x2="55" y2="60" gradientUnits="userSpaceOnUse"><stop stop-color="#a8f3f0"/><stop offset=".34" stop-color="#9baaff"/><stop offset=".64" stop-color="#cfb5ff"/><stop offset="1" stop-color="#f3bdc9"/></linearGradient><linearGradient id="b" x1="12" y1="12" x2="55" y2="54" gradientUnits="userSpaceOnUse"><stop stop-color="#e2ffff"/><stop offset=".53" stop-color="#d4d0ff"/><stop offset="1" stop-color="#ffe4d2"/></linearGradient></defs><path d="M8 8h27v10H18v17H8V8Zm31 0h17v27H46V18h-7V8Zm17 31v17H29V46h17v-7h10ZM25 56H8V39h10v7h7v10Z" fill="url(#a)"/><path d="m8 8 5-5h27l-5 5H8Zm31 0 5-5h17l-5 5H39Zm17 0 5-5v27l-5 5V8ZM56 39l5-5v17l-5 5V39ZM18 35l5-5V18h-5v17ZM29 46l5-5h12v5H29Z" fill="url(#b)"/><path d="M28 23h13v13H28z" fill="#c9b9ef"/><path d="m28 23 5-5h13l-5 5H28Zm13 0 5-5v13l-5 5V23Z" fill="url(#b)"/></svg>
